<svg xmlns:dc="http://purl.org/dc/elements/1.1/" xmlns:cc="http://creativecommons.org/ns#" xmlns:rdf="http://www.w3.org/1999/02/22-rdf-syntax-ns#" xmlns:svg="http://www.w3.org/2000/svg" xmlns="http://www.w3.org/2000/svg" xmlns:sodipodi="http://sodipodi.sourceforge.net/DTD/sodipodi-0.dtd" xmlns:inkscape="http://www.inkscape.org/namespaces/inkscape" version="1.1" x="0px" y="0px" viewBox="0 0 32 40" style="enable-background:new 0 0 32 32;" xml:space="preserve"><style type="text/css">
	.st0{fill:none;stroke:#4F5266;stroke-linecap:round;stroke-linejoin:round;stroke-miterlimit:10;}
	.st1{fill:#4F5266;}
	.st2{fill:none;stroke:#4F5266;stroke-miterlimit:10;}
	.st3{fill:#4F5266;stroke:#4F5266;stroke-miterlimit:10;}
</style><path style="" d="M 19.378906 6.4628906 C 19.163281 6.4628906 18.975391 6.5757812 18.900391 6.8007812 L 18.160156 8.5 L 6.5 8.5 C 5.1 8.5 4 9.6 4 11 L 4 18 C 4 19.4 5.1 20.5 6.5 20.5 L 7 20.5 L 7 23 C 7 23.2 7.1007812 23.400391 7.3007812 23.400391 C 7.3007813 23.500391 7.4 23.5 7.5 23.5 C 7.6 23.5 7.7007813 23.500391 7.8007812 23.400391 L 11.699219 20.5 L 12.9375 20.5 L 11.5 23.800781 C 11.4 24.100781 11.500781 24.4 11.800781 24.5 L 12 24.5 C 12.2 24.5 12.4 24.399219 12.5 24.199219 L 13.244141 22.492188 C 13.334296 22.497086 13.426823 22.5 13.5 22.5 L 20.300781 22.5 L 24.199219 25.400391 C 24.299219 25.500391 24.4 25.5 24.5 25.5 C 24.6 25.5 24.599219 25.500391 24.699219 25.400391 C 24.899219 25.400391 25 25.2 25 25 L 25 22.5 L 25.5 22.5 C 26.9 22.5 28 21.4 28 20 L 28 13 C 28 11.6 26.9 10.5 25.5 10.5 L 18.462891 10.5 L 19.900391 7.1992188 C 20.000391 6.9992188 19.899609 6.7 19.599609 6.5 C 19.524609 6.475 19.450781 6.4628906 19.378906 6.4628906 z M 6.5 9.5 L 17.724609 9.5 L 13.904297 18.277344 C 13.991502 17.985361 13.893963 17.696982 13.699219 17.599609 C 12.88637 17.173832 12.183534 16.595047 11.615234 15.916016 C 12.346001 14.934458 12.80581 13.753783 12.949219 12.5 L 13.5 12.5 C 13.8 12.5 14 12.3 14 12 C 14 11.7 13.8 11.5 13.5 11.5 L 11.5 11.5 L 11.5 11 C 11.5 10.7 11.3 10.5 11 10.5 C 10.7 10.5 10.5 10.7 10.5 11 L 10.5 11.5 L 8.5 11.5 C 8.2 11.5 8 11.7 8 12 C 8 12.3 8.2 12.5 8.5 12.5 L 9.1445312 12.5 C 9.2623314 13.70361 9.685941 14.870293 10.367188 15.882812 C 10.050567 16.221746 9.6945579 16.53006 9.3007812 16.800781 C 9.0007812 17.000781 8.9996094 17.3 9.0996094 17.5 C 9.1996094 17.6 9.3 17.699219 9.5 17.699219 C 9.6 17.699219 9.7007813 17.699609 9.8007812 17.599609 C 10.227657 17.330004 10.613173 17.010729 10.964844 16.658203 C 11.58742 17.367441 12.338662 17.970112 13.199219 18.400391 C 13.199219 18.500391 13.300391 18.5 13.400391 18.5 C 13.499018 18.5 13.695343 18.403296 13.892578 18.304688 L 13.373047 19.5 L 11.5 19.5 C 11.4 19.5 11.299219 19.499609 11.199219 19.599609 L 8 22 L 8 20 C 8 19.7 7.8 19.5 7.5 19.5 L 6.5 19.5 C 5.7 19.5 5 18.8 5 18 L 5 11 C 5 10.2 5.7 9.5 6.5 9.5 z M 18.027344 11.5 L 25.5 11.5 C 26.3 11.5 27 12.2 27 13 L 27 20 C 27 20.8 26.3 21.5 25.5 21.5 L 24.5 21.5 C 24.2 21.5 24 21.7 24 22 L 24 24 L 20.800781 21.699219 C 20.700781 21.599219 20.6 21.599609 20.5 21.599609 L 13.630859 21.599609 L 18.027344 11.5 z M 10.146484 12.5 L 11.945312 12.5 C 11.824309 13.438418 11.501601 14.299203 11.007812 15.052734 C 10.542704 14.274638 10.246604 13.407752 10.146484 12.5 z M 19.5 13.5 C 18.7 13.5 18 14.2 18 15 L 18 19 C 18 19.3 18.2 19.5 18.5 19.5 C 18.8 19.5 19 19.3 19 19 L 19 17.5 L 22 17.5 L 22 19 C 22 19.3 22.2 19.5 22.5 19.5 C 22.8 19.5 23 19.3 23 19 L 23 15 C 23 14.2 22.3 13.5 21.5 13.5 L 19.5 13.5 z M 19.5 14.5 L 21.5 14.5 C 21.8 14.5 22 14.7 22 15 L 22 16.5 L 19 16.5 L 19 15 C 19 14.7 19.2 14.5 19.5 14.5 z " fill="#000000" stroke="none"/><text x="0" y="47" fill="#000000" font-size="5px" font-weight="bold" font-family="'Helvetica Neue', Helvetica, Arial-Unicode, Arial, Sans-serif">Created by Jemis mali</text><text x="0" y="52" fill="#000000" font-size="5px" font-weight="bold" font-family="'Helvetica Neue', Helvetica, Arial-Unicode, Arial, Sans-serif">from the Noun Project</text></svg>